#!OML:ASF H:\Terrain\Patient Classification 1\Walking\liu\liu.ASF
:FULLY-SPECIFIED
:DEGREES
182
root 8.10532 16.6891 -11.7661 7.78276 5.9199 -2.22169
lowerback -4.2085 0.995788 0.674454
upperback -2.14228 1.29115 3.38423
thorax 0.094661 0.661465 3.1546
lowerneck -13.5358 -7.09395 -16.1851
upperneck 13.1288 -9.11513 16.3022
head 7.80657 -3.88979 7.1072
rclavicle -6.85807e-015 2.70347e-014
rhumerus -40.7233 10.4148 -78.4977
rradius 43.668
rwrist -21.2168
rhand -30.4969 -24.9072
rfingers 7.12502
rthumb -3.79732 -54.8531
lclavicle -6.85807e-015 2.70347e-014
lhumerus -49.2963 -11.038 96.3134
lradius 33.2904
lwrist 16.8422
lhand -14.8086 -25.2004
lfingers 7.12502
lthumb 11.3494 4.47245
rfemur -18.7732 3.98761 27.1746
rtibia 28.1143
rfoot -18.9256 1.3952
rtoes -14.1464
lfemur -30.8781 7.81703 -18.7392
ltibia 60.8325
lfoot -12.6722 11.4803
ltoes -7.93351
183
root 8.10662 16.6719 -11.6456 7.77665 5.76721 -2.21455
lowerback -4.02341 1.08506 0.652838
upperback -2.53656 1.42993 3.35565
thorax -0.420762 0.736185 3.13376
lowerneck -12.0557 -6.85582 -16.3281
upperneck 12.7522 -8.95575 16.4464
head 7.4055 -3.87825 7.22083
rclavicle 9.61621e-015 -6.36111e-015
rhumerus -41.6969 10.4135 -78.4485
rradius 44.819
rwrist -21.6157
rhand -30.9006 -25.3926
rfingers 7.12502
rthumb -4.18718 -55.3311
lclavicle 9.61621e-015 -6.36111e-015
lhumerus -50.1066 -11.0541 96.5564
lradius 33.1322
lwrist 16.9889
lhand -15.3558 -25.9339
lfingers 7.12502
lthumb 10.8216 3.76726
rfemur -18.3834 4.144 27.2602
rtibia 28.2971
rfoot -19.1936 1.27793
rtoes -14.4623
lfemur -31.9412 7.78504 -18.977
ltibia 60.1058
lfoot -12.7052 11.712
ltoes -7.73033
184
root 8.11106 16.6515 -11.5185 7.53353 5.67025 -2.05523
lowerback -3.9916 1.12318 0.428257
upperback -2.02029 1.47164 3.30041
thorax 0.0859759 0.752398 3.21027
lowerneck -13.1171 -6.99429 -15.897
upperneck 12.7397 -9.03663 16.2218
head 7.57383 -3.86461 7.03706
rclavicle -1.80646e-014 -1.82882e-014
rhumerus -40.2684 9.89376 -78.1295
rradius 44.9406
rwrist -21.6626
rhand -31.3164 -25.2431
rfingers 7.12502
rthumb -4.58868 -55.1734
lclavicle -1.80646e-014 -1.82882e-014
lhumerus -49.1046 -11.0293 96.3571
lradius 32.7911
lwrist 17.3259
lhand -15.548 -24.5845
lfingers 7.12502
lthumb 10.6362 5.12636
rfemur -17.6314 4.17947 27.1867
rtibia 28.393
rfoot -19.4284 1.21457
rtoes -14.1861
lfemur -32.6255 7.65739 -19.3943
ltibia 59.3257
lfoot -12.7704 12.0045
ltoes -2.90168
185
root 8.10908 16.6423 -11.393 7.49893 5.54591 -2.19475
lowerback -4.20419 1.16811 0.498442
upperback -1.53712 1.50791 3.28479
thorax 0.701464 0.763019 3.1683
lowerneck -14.5738 -7.15769 -15.3885
upperneck 13.0426 -9.15783 15.9892
head 7.91629 -3.84793 6.83332
rclavicle 2.00276e-014 -2.22639e-014
rhumerus -38.6276 9.27738 -77.9197
rradius 44.8812
rwrist -21.6546
rhand -31.3899 -25.1842
rfingers 7.12502
rthumb -4.65966 -55.113
lclavicle 2.00276e-014 -2.22639e-014
lhumerus -48.28 -10.6528 95.8768
lradius 32.6729
lwrist 16.6692
lhand -16.0296 -23.6572
lfingers 7.12502
lthumb 10.1716 6.07687
rfemur -17.0821 4.38102 27.4472
rtibia 28.3764
rfoot -19.9483 0.987185
rtoes -13.921
lfemur -33.5916 7.66127 -19.5619
ltibia 58.4948
lfoot -11.8069 12.9051
ltoes 3.6198
186
root 8.10942 16.6429 -11.2631 7.54503 5.2905 -2.32824
lowerback -4.7316 1.13385 0.536437
upperback -0.468512 1.4143 3.1945
thorax 2.10314 0.700609 3.08017
lowerneck -18.3911 -7.41297 -14.2337
upperneck 14.0713 -9.31611 15.5408
head 8.88364 -3.7228 6.42308
rclavicle 3.26007e-014 5.48646e-014
rhumerus -35.913 8.85422 -77.9413
rradius 44.9549
rwrist -21.908
rhand -31.7003 -25.4156
rfingers 7.12502
rthumb -4.95931 -55.3375
lclavicle 3.26007e-014 5.48646e-014
lhumerus -46.1428 -10.8369 95.2166
lradius 32.3179
lwrist 16.6568
lhand -16.3388 -24.1684
lfingers 7.12502
lthumb 9.87334 5.58014
rfemur -16.5031 4.39803 27.6895
rtibia 28.183
rfoot -20.3184 1.17654
rtoes -13.4465
lfemur -34.538 7.56103 -19.6328
ltibia 57.4676
lfoot -15.4797 12.2265
ltoes -8.17944
187
root 8.11571 16.6488 -11.1336 7.39681 5.12038 -2.22772
lowerback -4.1286 1.44324 0.679166
upperback -1.94194 1.88373 3.19374
thorax 0.233041 0.955124 2.97989
lowerneck -13.1744 -6.94848 -15.8748
upperneck 13.0853 -9.03005 16.3404
head 7.69947 -3.84643 7.08455
rclavicle -8.22472e-015 -1.74931e-014
rhumerus -39.0603 8.71797 -77.7758
rradius 45.7569
rwrist -22.4354
rhand -32.9439 -26.3987
rfingers 7.12502
rthumb -6.16002 -56.2892
lclavicle -8.22472e-015 -1.74931e-014
lhumerus -49.454 -11.4676 96.6104
lradius 32.4557
lwrist 16.9998
lhand -15.9646 -23.8245
lfingers 7.12502
lthumb 10.2343 5.90658
rfemur -15.5887 4.28192 27.6564
rtibia 27.7685
rfoot -20.4294 1.45568
rtoes -13.0538
lfemur -35.1305 7.09552 -19.7927
ltibia 56.1964
lfoot -15.633 12.1431
ltoes -6.28932
188
root 8.11874 16.6523 -11.0135 7.26526 5.02324 -2.34871
lowerback -4.26234 1.36558 0.708821
upperback -0.796116 1.73813 3.15555
thorax 1.49392 0.869075 2.94208
lowerneck -17.0093 -7.36248 -14.5517
upperneck 13.8446 -9.31071 15.508
head 8.57289 -3.80291 6.47804
rclavicle -1.1778e-014 -2.38542e-014
rhumerus -36.0777 8.30721 -77.7368
rradius 45.5083
rwrist -22.6722
rhand -33.7847 -26.3544
rfingers 7.12502
rthumb -6.97171 -56.2195
lclavicle -1.1778e-014 -2.38542e-014
lhumerus -47.0433 -11.1707 95.6719
lradius 32.1444
lwrist 16.7339
lhand -15.3749 -23.3198
lfingers 7.12502
lthumb 10.8031 6.38236
rfemur -14.7552 4.34432 27.8695
rtibia 27.2439
rfoot -20.6023 1.41711
rtoes -13.2055
lfemur -35.801 6.75082 -19.7522
ltibia 54.7981
lfoot -14.9312 12.6171
ltoes -6.09663
189
root 8.1181 16.6569 -10.8862 7.16105 4.75018 -2.51147
lowerback -4.46894 1.52168 0.845966
upperback -0.02939 1.90963 3.14796
thorax 2.39549 0.947148 2.89024
lowerneck -19.4455 -7.74401 -13.989
upperneck 14.4783 -9.63975 14.9764
head 9.21409 -3.86325 6.11901
rclavicle -5.66536e-015 8.74653e-015
rhumerus -34.2074 7.45261 -77.4329
rradius 45.6611
rwrist -22.6587
rhand -33.7536 -26.5271
rfingers 7.12502
rthumb -6.94176 -56.3933
lclavicle -5.66536e-015 8.74653e-015
lhumerus -45.4536 -10.8075 95.0922
lradius 31.6512
lwrist 15.7084
lhand -15.3702 -23.5749
lfingers 7.12502
lthumb 10.8076 6.12704
rfemur -13.9634 4.30345 28.1254
rtibia 26.752
rfoot -20.7139 1.71676
rtoes -12.7983
lfemur -36.4269 6.749 -19.7039
ltibia 53.3274
lfoot -14.7274 12.0005
ltoes -4.45953
190
root 8.12097 16.6595 -10.757 7.03325 4.52235 -2.46989
lowerback -4.53216 1.6247 0.764205
upperback 0.239188 2.04142 3.14079
thorax 2.69952 1.00889 2.94609
lowerneck -19.9227 -7.85268 -14.1516
upperneck 14.3824 -9.7118 15.1694
head 9.29917 -3.86811 6.19668
rclavicle 2.14687e-014 1.59028e-015
rhumerus -33.5645 7.05703 -77.2891
rradius 46.0745
rwrist -22.8818
rhand -33.8007 -27.9133
rfingers 7.12502
rthumb -6.98721 -57.778
lclavicle 2.14687e-014 1.59028e-015
lhumerus -45.0721 -10.4773 94.9033
lradius 31.3909
lwrist 14.9653
lhand -15.2917 -23.7779
lfingers 7.12502
lthumb 10.8834 5.92009
rfemur -13.0879 4.25413 28.1493
rtibia 26.2739
rfoot -21.0664 1.67979
rtoes -15.5904
lfemur -36.9126 6.62816 -19.8443
ltibia 51.8303
lfoot -15.0118 11.1196
ltoes -4.43591
191
root 8.1259 16.648 -10.6373 7.02183 4.52065 -2.50293
lowerback -4.41053 1.54175 0.70332
upperback -0.0596439 1.94511 3.20236
thorax 2.32341 0.963632 3.02624
lowerneck -18.5553 -7.57121 -14.5374
upperneck 13.7745 -9.41828 15.6461
head 8.85173 -3.77366 6.48684
rclavicle 6.16232e-015 3.18055e-014
rhumerus -33.7944 7.31912 -77.4069
rradius 46.2708
rwrist -23.0989
rhand -33.6226 -26.9001
rfingers 7.12502
rthumb -6.81526 -56.7704
lclavicle 6.16232e-015 3.18055e-014
lhumerus -45.7765 -10.2922 95.0735
lradius 31.247
lwrist 14.8518
lhand -14.7094 -24.1746
lfingers 7.12502
lthumb 11.445 5.49297
rfemur -12.343 4.50721 28.2795
rtibia 25.7518
rfoot -21.3801 1.19387
rtoes -17.9988
lfemur -37.561 6.3603 -19.9275
ltibia 50.2781
lfoot -15.4765 10.7238
ltoes -5.70281
192
root 8.12786 16.6414 -10.513 7.05155 4.41817 -2.61428
lowerback -4.20133 1.48557 0.732472
upperback -0.898592 1.89999 3.29696
thorax 1.34302 0.951471 3.07952
lowerneck -15.5173 -7.05057 -15.2236
upperneck 13.1969 -8.9585 16.135
head 8.10175 -3.69051 6.87693
rclavicle -7.00716e-015 6.36111e-015
rhumerus -35.2474 7.82755 -77.6462
rradius 46.7222
rwrist -23.2752
rhand -33.3285 -26.474
rfingers 7.12502
rthumb -6.5313 -56.3533
lclavicle -7.00716e-015 6.36111e-015
lhumerus -47.6269 -10.1981 95.5887
lradius 31.1598
lwrist 14.9454
lhand -13.7908 -24.7321
lfingers 7.12502
lthumb 12.3308 4.88427
rfemur -11.6343 4.85537 28.4877
rtibia 25.29
rfoot -20.9715 1.37609
rtoes -14.06
lfemur -38.2105 6.36009 -19.9746
ltibia 48.6164
lfoot -15.6274 10.3613
ltoes -8.40212
